<?xml version="1.0" encoding="UTF-8"?>
<svg width="168px" height="66px" viewBox="0 0 168 66" version="1.1" xmlns="http://www.w3.org/2000/svg" xmlns:xlink="http://www.w3.org/1999/xlink">
    <!-- Generator: Sketch 49 (51002) - http://www.bohemiancoding.com/sketch -->
    <title>Artboard</title>
    <desc>Created with Sketch.</desc>
    <defs>
        <polygon id="path-1" points="0 0.0775516014 23.9921423 0.0775516014 23.9921423 21.8647606 0 21.8647606"></polygon>
    </defs>
    <g id="Artboard" stroke="none" stroke-width="1" fill="none" fill-rule="evenodd">
        <g id="Group" transform="translate(0.000000, 1.000000)" fill="#0072AD" fill-rule="nonzero">
            <path d="M3.00012019,0 C1.34603365,0 0,1.34603365 0,3.00012019 C0,4.65390625 1.34603365,6 3.00012019,6 C4.65390625,6 6,4.65390625 6,3.00012019 C6,1.34603365 4.65390625,0 3.00012019,0 Z M3.00005869,4 C2.44838615,4 2,3.55170491 2,3 C2,2.44829509 2.44838615,2 3.00005869,2 C3.55161385,2 4,2.44829509 4,3 C4,3.55170491 3.55161385,4 3.00005869,4 Z" id="Fill-1"></path>
            <path d="M3.00012019,8 C1.34603365,8 0,9.34603365 0,11.0001202 C0,12.6539063 1.34603365,14 3.00012019,14 C4.65390625,14 6,12.6539063 6,11.0001202 C6,9.34603365 4.65390625,8 3.00012019,8 Z M3.00005869,12 C2.44838615,12 2,11.5517049 2,11 C2,10.4482951 2.44838615,10 3.00005869,10 C3.55161385,10 4,10.4482951 4,11 C4,11.5517049 3.55161385,12 3.00005869,12 Z" id="Fill-1-Copy-3"></path>
            <path d="M3.00012019,16 C1.34603365,16 0,17.3460337 0,19.0001202 C0,20.6539062 1.34603365,22 3.00012019,22 C4.65390625,22 6,20.6539062 6,19.0001202 C6,17.3460337 4.65390625,16 3.00012019,16 Z M3.00005869,20 C2.44838615,20 2,19.5517049 2,19 C2,18.4482951 2.44838615,18 3.00005869,18 C3.55161385,18 4,18.4482951 4,19 C4,19.5517049 3.55161385,20 3.00005869,20 Z" id="Fill-1-Copy-4"></path>
            <path d="M24,3.00025253 C24,2.44444444 23.7717465,2 23.4862189,2 L10.5135865,2 C10.2282535,2 10,2.44444444 10,3.00025253 C10,3.55568182 10.2282535,4 10.5135865,4 L23.4862189,4 C23.7717465,4 24,3.55568182 24,3.00025253 Z" id="Fill-6"></path>
            <path d="M10.5138436,10 C10.2282524,10 10,10.4444444 10,10.9997475 C10,11.5555556 10.2282524,12 10.5138436,12 L23.4864159,12 C23.7716827,12 24,11.5555556 24,10.9997475 C24,10.4444444 23.7716827,10 23.4864159,10 L10.5138436,10 Z" id="Fill-7"></path>
            <path d="M24,18.9997475 C24,18.4444444 23.7716827,18 23.4864159,18 L10.5138436,18 C10.2282524,18 10,18.4444444 10,18.9997475 C10,19.5555556 10.2282524,20 10.5138436,20 L23.4864159,20 C23.7716827,20 24,19.5555556 24,18.9997475 Z" id="Fill-8"></path>
        </g>
        <g id="login" transform="translate(24.000000, 1.000000)" fill="#0072AD" fill-rule="nonzero">
            <path d="M11.2210326,18.0205368 C10.9096047,17.709109 10.4033099,17.709109 10.091882,18.0205368 L9.0602024,19.0522913 L8.02844791,18.0205368 C7.71702005,17.709109 7.21080007,17.709109 6.89937221,18.0205368 C6.58794436,18.3319647 6.58794436,18.8382596 6.89937221,19.1496874 L7.92947973,20.181367 L6.89772524,21.2131215 C6.58629738,21.5245494 6.58629738,22.0307694 6.89772524,22.3421972 C7.05426265,22.4987346 7.25871204,22.5769659 7.46308657,22.5769659 C7.66753596,22.5769659 7.87198536,22.4987346 8.0268758,22.3438442 L9.0602024,21.3120897 L10.091882,22.3438442 C10.2484194,22.4987346 10.452794,22.5769659 10.6572434,22.5769659 C10.8616928,22.5769659 11.0660673,22.4987346 11.2210326,22.3438442 C11.5324604,22.0324163 11.5324604,21.5261215 11.2210326,21.2146936 L10.1892781,20.181367 L11.2210326,19.1496874 C11.5324604,18.8382596 11.5324604,18.3319647 11.2210326,18.0205368 Z M17.2736329,18.0205368 C16.9622051,17.709109 16.4559102,17.709109 16.1444824,18.0205368 L15.1128027,19.0522913 L14.0811231,18.0205368 C13.7696953,17.709109 13.2634004,17.709109 12.9519726,18.0205368 C12.6405447,18.3319647 12.6405447,18.8382596 12.9519726,19.1496874 L13.9820801,20.181367 L12.9504004,21.2131215 C12.6389726,21.5245494 12.6389726,22.0307694 12.9504004,22.3421972 C13.106863,22.4987346 13.3113124,22.5769659 13.5157618,22.5769659 C13.7201363,22.5769659 13.9245857,22.4987346 14.0794761,22.3438442 L15.1128027,21.3120897 L16.1444824,22.3438442 C16.3010198,22.4987346 16.5054692,22.5769659 16.7098437,22.5769659 C16.9142931,22.5769659 17.1187425,22.4987346 17.2736329,22.3438442 C17.5850608,22.0324163 17.5850608,21.5261215 17.2736329,21.2146936 L16.2419533,20.181367 L17.2736329,19.1496874 C17.5850608,18.8382596 17.5850608,18.3319647 17.2736329,18.0205368 Z M23.3262489,18.0205368 C23.0148211,17.709109 22.5086011,17.709109 22.1971732,18.0205368 L21.1654187,19.0522913 L20.1337391,18.0205368 C19.8223113,17.709109 19.3160164,17.709109 19.0045886,18.0205368 C18.6931607,18.3319647 18.6931607,18.8382596 19.0045886,19.1496874 L20.0346961,20.181367 L19.0030164,21.2131215 C18.6915886,21.5245494 18.6915886,22.0307694 19.0030164,22.3421972 C19.1595539,22.4987346 19.3639284,22.5769659 19.5683778,22.5769659 C19.7728272,22.5769659 19.9772017,22.4987346 20.132167,22.3438442 L21.1654187,21.3120897 L22.1971732,22.3438442 C22.3536358,22.4987346 22.5580852,22.5769659 22.7625346,22.5769659 C22.9669091,22.5769659 23.1713585,22.4987346 23.3262489,22.3438442 C23.6376768,22.0324163 23.6376768,21.5261215 23.3262489,21.2146936 L22.2945693,20.181367 L23.3262489,19.1496874 C23.6376768,18.8382596 23.6376768,18.3319647 23.3262489,18.0205368 Z M5.16834173,18.0205368 C4.85691388,17.709109 4.35069389,17.709109 4.03926603,18.0205368 L3.00751154,19.0522913 L1.97583191,18.0205368 C1.66440406,17.709109 1.15810921,17.709109 0.846681351,18.0205368 C0.535253497,18.3319647 0.535253497,18.8382596 0.846681351,19.1496874 L1.87678887,20.181367 L0.845109239,21.2131215 C0.533681385,21.5245494 0.533681385,22.0307694 0.845109239,22.3421972 C1.00164665,22.4987346 1.20602118,22.5769659 1.41047058,22.5769659 C1.61491997,22.5769659 1.8192945,22.4987346 1.9742598,22.3438442 L3.00751154,21.3120897 L4.03926603,22.3438442 C4.19572859,22.4987346 4.40017798,22.5769659 4.60462737,22.5769659 C4.8090019,22.5769659 5.01345129,22.4987346 5.16834173,22.3438442 C5.47976959,22.0324163 5.47976959,21.5261215 5.16834173,21.2146936 L4.1366621,20.181367 L5.16834173,19.1496874 C5.47976959,18.8382596 5.47976959,18.3319647 5.16834173,18.0205368 Z M12.0855264,1.36497219 C15.2194237,1.36497219 17.7697416,3.91529008 17.7697416,7.04918739 C17.7697416,8.28331341 17.3642676,9.41761039 16.6935302,10.3510651 C16.1074639,9.35443271 15.2245158,8.58013602 14.1824097,8.12918828 C14.8278642,7.55064175 15.2434632,6.71950291 15.2434632,5.78604819 C15.2434632,4.04537571 13.8261989,2.62811139 12.0855264,2.62811139 C10.3449131,2.62811139 8.92764881,4.04537571 8.92764881,5.78604819 C8.92764881,6.71950291 9.34324783,7.55064175 9.98870231,8.12918828 C8.94535277,8.5788926 8.06240467,9.35318929 7.47752261,10.3510651 C6.80678522,9.41761039 6.4013112,8.28331341 6.4013112,7.04918739 C6.4013112,3.91529008 8.95162909,1.36497219 12.0855264,1.36497219 Z M10.190788,5.78604819 C10.190788,4.74139602 11.0409334,3.89130979 12.0855264,3.89130979 C13.1301786,3.89130979 13.9802648,4.74139602 13.9802648,5.78604819 C13.9802648,6.83064116 13.1301786,7.6807866 12.0855264,7.6807866 C11.0409334,7.6807866 10.190788,6.83064116 10.190788,5.78604819 Z M15.4986016,11.5650003 C15.3659699,11.6647701 15.2345816,11.7658426 15.094371,11.8516979 C14.9806867,11.9224546 14.8594234,11.9805401 14.7407062,12.0437178 C13.0986193,12.8862251 11.0724927,12.8862251 9.4304058,12.0437178 C9.31162938,11.9805401 9.19036613,11.9224546 9.07668182,11.8516979 C8.93647118,11.7658426 8.80514213,11.6647701 8.67251044,11.5650003 C8.57268141,11.4892108 8.47794449,11.4083291 8.38320757,11.3262633 C9.05145812,9.88626209 10.4876698,8.94392579 12.0855264,8.94392579 C13.6834422,8.94392579 15.1196539,9.88626209 15.7891479,11.3262633 C15.6944109,11.4083291 15.5983714,11.4892108 15.4986016,11.5650003 Z M7.17691052,11.9653822 C7.19206843,11.9805401 7.20977239,11.9906651 7.2249303,12.0045796 C7.52678581,12.3001588 7.85268082,12.5704551 8.20385874,12.8079487 C8.24429956,12.8357185 8.28847065,12.8572119 8.33015489,12.8849817 C8.66617491,13.1022253 9.01859625,13.2942452 9.3912084,13.4521598 C9.4354387,13.4711071 9.48091242,13.483719 9.52514272,13.501423 C9.90278777,13.6516994 10.2944065,13.7742653 10.7011239,13.8576338 C10.7264069,13.8626667 10.7516306,13.8639101 10.7756701,13.8690022 C11.2000915,13.9498246 11.6371247,13.9965418 12.0855264,13.9965418 C12.5339873,13.9965418 12.9710206,13.9498246 13.395442,13.8690022 C13.4207249,13.8639101 13.4459486,13.8626667 13.4699881,13.8576338 C13.8779489,13.7755087 14.2695677,13.6516994 14.6485154,13.501423 C14.691443,13.483719 14.7356733,13.4711071 14.778601,13.4534032 C15.1537592,13.2954886 15.5087266,13.1009818 15.8472334,12.8824356 C15.8851282,12.8572119 15.925569,12.8369619 15.9634638,12.8117382 C16.320918,12.5704551 16.6531486,12.2950667 16.9600962,11.9932112 C16.970162,11.9830862 16.9828331,11.9755072 16.9942015,11.9653822 C16.9954449,11.9641388 16.9954449,11.9603493 16.997991,11.9591059 C18.2547946,10.699697 19.03294,8.9641166 19.03294,7.04918739 C19.03294,3.21802635 15.9166874,0.101832994 12.0855264,0.101832994 C8.25436536,0.101832994 5.13817201,3.21802635 5.13817201,7.04918739 C5.13817201,8.96287318 5.91625817,10.6972101 7.17187763,11.9553164 C7.17436447,11.9578033 7.17436447,11.9628954 7.17691052,11.9653822 Z" id="Fill-1"></path>
        </g>
        <g id="logout-(1)" transform="translate(49.000000, 1.000000)" fill="#0072AD" fill-rule="nonzero">
            <path d="M10.2782718,20.5583236 L1.37055016,20.5583236 L1.37055016,1.37204531 L10.2782718,1.37204531 C10.6565437,1.37204531 10.9635469,1.06525566 10.9635469,0.687055016 C10.9635469,0.308783172 10.6565437,0.00177993528 10.2782718,0.00177993528 L0.685275081,0.00177993528 C0.307003236,0.00177993528 0,0.308783172 0,0.687055016 L0,21.2435987 C0,21.6218706 0.307003236,21.9288738 0.685275081,21.9288738 L10.2782718,21.9288738 C10.6565437,21.9288738 10.9635469,21.6218706 10.9635469,21.2435987 C10.9635469,20.8653981 10.6565437,20.5583236 10.2782718,20.5583236 Z" id="Fill-1"></path>
            <path d="M21.7283107,10.4869515 L17.0003042,5.69116505 C16.7325307,5.42054369 16.2986537,5.42111327 16.0313786,5.69116505 C15.763534,5.96121683 15.763534,6.39950809 16.0313786,6.66955987 L19.5945955,10.2842524 L5.48383819,10.2842524 C5.10563754,10.2842524 4.79856311,10.5937476 4.79856311,10.9761489 C4.79856311,11.3585502 5.10563754,11.6684013 5.48383819,11.6684013 L19.5945955,11.6684013 L16.0313786,15.2828091 C15.763534,15.553644 15.763534,15.9914369 16.0313786,16.2614887 C16.2995081,16.53211 16.7330291,16.53211 17.0003042,16.2614887 L21.7277411,11.4653463 C21.9922395,11.1989256 21.9950162,10.7528738 21.7283107,10.4869515 Z" id="Fill-3"></path>
        </g>
        <g id="Group" transform="translate(0.000000, 24.000000)" fill-rule="nonzero">
            <circle id="Oval" fill="#FFFFFF" cx="21" cy="21" r="21"></circle>
            <g id="avatar" transform="translate(11.000000, 9.000000)" fill="#0072AD">
                <path d="M10.0764124,12.9797938 L10.234701,12.9797938 C11.6846598,12.9551753 12.8575052,12.4453608 13.7234845,11.4706392 C15.6284536,9.32282474 15.3119381,5.64123711 15.2771134,5.28989691 C15.1534021,2.65230928 13.9063918,1.39057732 12.8773608,0.80171134 C12.1101649,0.361237113 11.2144948,0.12371134 10.2149072,0.103917526 L10.1307835,0.103917526 C9.58156701,0.103917526 8.50274227,0.193051546 7.46857732,0.781917526 C6.42934021,1.37072165 5.16253608,2.63251546 5.03882474,5.28989691 C5.00424742,5.64123711 4.68748454,9.32282474 6.59270103,11.4706392 C7.45360825,12.4453608 8.62645361,12.9551753 10.0764124,12.9797938 Z M6.36,5.41360825 C6.36,5.3988866 6.36507216,5.38385567 6.36507216,5.37395876 C6.52843299,1.82597938 9.04713402,1.44494845 10.1259588,1.44494845 L10.1851546,1.44494845 C11.5213608,1.47463918 13.7925773,2.01903093 13.9460412,5.37395876 C13.9460412,5.38892784 13.9460412,5.40371134 13.9511134,5.41360825 C13.9559381,5.44812371 14.3024536,8.81325773 12.7287216,10.5848041 C12.1053402,11.2874845 11.2739381,11.6336907 10.1803299,11.6436495 L10.1307835,11.6436495 C9.04230928,11.6336907 8.2057732,11.2874845 7.58721649,10.5848041 C6.01861856,8.82315464 6.35517526,5.44329897 6.36,5.41360825 Z" id="Fill-1"></path>
                <path d="M20.3246598,19.0861237 L20.3246598,19.0714021 C20.3246598,19.0317526 20.3195876,18.9921031 20.3195876,18.9476907 C20.2900825,17.9678969 20.225567,15.6768247 18.0780619,14.9444536 C18.0632784,14.9393814 18.0434845,14.9345567 18.0285155,14.9294845 C15.7968866,14.3604124 13.9412165,13.0738144 13.9213608,13.0590309 C13.6196289,12.8461856 13.2037732,12.9203505 12.9911134,13.2221443 C12.778268,13.5241856 12.852433,13.9397938 13.1542268,14.1526392 C13.2385361,14.2118351 15.2080206,15.5825567 17.6723505,16.2160825 C18.8251546,16.626866 18.9539381,17.8589072 18.9884536,18.9872784 C18.9884536,19.0317526 18.9884536,19.0714021 18.9935258,19.1109897 C18.9984124,19.5562887 18.9686598,20.2442474 18.8896701,20.64 C18.0879588,21.0951959 14.9456289,22.6689278 10.1653608,22.6689278 C5.40513402,22.6689278 2.24301031,21.0903711 1.43647423,20.6351753 C1.35717526,20.2391753 1.32265979,19.5512165 1.3325567,19.1059175 C1.3325567,19.0663299 1.33738144,19.0269278 1.33738144,18.9822062 C1.37220619,17.8540825 1.50074227,16.6217938 2.65373196,16.2110103 C5.11806186,15.577732 7.08754639,14.2021856 7.17160825,14.147567 C7.47340206,13.9349691 7.54781443,13.5191134 7.33496907,13.2173196 C7.12212371,12.9155258 6.70651546,12.8413608 6.40472165,13.0539588 C6.38492784,13.0689897 4.53915464,14.3553402 2.29738144,14.9246598 C2.27752577,14.9294845 2.26280412,14.9345567 2.24783505,14.9393814 C0.100268041,15.6768247 0.036,17.9678969 0.00630927835,18.9426186 C0.00630927835,18.9872784 0.00630927835,19.0269278 0.00142268041,19.0663299 L0.00142268041,19.081299 C-0.00364948454,19.3386186 -0.0084742268,20.6597938 0.253731959,21.3228247 C0.303216495,21.4516082 0.392164948,21.5603505 0.511051546,21.6345155 C0.659381443,21.7336082 4.21756701,24 10.170433,24 C16.123299,24 19.6814845,21.7287835 19.8298144,21.6345155 C19.9436289,21.5603505 20.0375876,21.4516082 20.087134,21.3228247 C20.3345567,20.6646186 20.3294845,19.3434433 20.3246598,19.0861237 Z" id="Fill-3"></path>
            </g>
        </g>
        <g id="error" transform="translate(72.000000, 0.000000)">
            <g id="Group-3" fill="#FF624E" fill-rule="nonzero">
                <path d="M24,12 C24,18.6282 18.6282,24 12,24 C5.3718,24 0,18.6282 0,12 C0,5.3718 5.3718,0 12,0 C18.6282,0 24,5.3718 24,12 Z" id="Fill-1"></path>
            </g>
            <path d="M7.6806,16.3194 L16.3194,7.6806 M7.6806,7.6806 L16.3194,16.3194" id="Stroke-4" stroke="#FFFFFF" stroke-width="1.6" stroke-linecap="round"></path>
        </g>
        <g id="Group-2" transform="translate(72.000000, 28.000000)" fill="#FFFFFF">
            <rect id="Rectangle" x="0" y="0" width="24" height="3"></rect>
            <rect id="Rectangle-Copy" x="0" y="7" width="24" height="3"></rect>
            <rect id="Rectangle-Copy-2" x="0" y="14" width="24" height="3"></rect>
        </g>
        <rect id="Rectangle-2" fill="#0072AD" x="96" y="24" width="24" height="25"></rect>
        <g id="error-copy" transform="translate(96.000000, 0.000000)">
            <g id="Group-3" fill="#FFC25F" fill-rule="nonzero">
                <path d="M24,12 C24,18.6282 18.6282,24 12,24 C5.3718,24 0,18.6282 0,12 C0,5.3718 5.3718,0 12,0 C18.6282,0 24,5.3718 24,12 Z" id="Fill-1"></path>
            </g>
            <path d="M7.6806,16.3194 L16.3194,7.6806 M7.6806,7.6806 L16.3194,16.3194" id="Stroke-4" stroke="#FFFFFF" stroke-width="1.6" stroke-linecap="round"></path>
        </g>
        <g id="checked" transform="translate(120.000000, 0.000000)" fill="#66B659" fill-rule="nonzero">
            <path d="M9.7910445,18.1686745 L4.51138173,12.8892365 L6.27108197,11.1294801 L9.7910445,14.6492178 L17.7101452,6.72989227 L19.4699016,8.48959251 L9.7910445,18.1686745 Z M11.9906136,0.0187166276 C5.36869321,0.0187166276 0,5.38718501 0,12.0093302 C0,18.6315316 5.36869321,24 11.9906136,24 C18.6133208,24 23.9812834,18.6315316 23.9812834,12.0093302 C23.9812834,5.38718501 18.6130398,0.0187166276 11.9906136,0.0187166276 Z" id="Fill-1"></path>
        </g>
        <g id="error-triangle" transform="translate(145.000000, 1.000000)" fill="#F4B750" fill-rule="nonzero">
            <path d="M22.3476923,19.2816194 L12.5947253,0.751740891 C12.3468132,0.292145749 11.8738462,0 11.3516484,0 C10.8294505,0 10.3564835,0.292145749 10.1156044,0.751740891 L0.30813187,19.2816194 C0.07428571,19.7198381 0.08835165,20.2560324 0.34153846,20.68 C0.59648352,21.1128745 1.05714286,21.3765182 1.55120879,21.3765182 L21.1116484,21.3765182 C21.6057143,21.3765182 22.0593407,21.1128745 22.3125275,20.68 C22.5674725,20.2560324 22.5815385,19.7198381 22.3476923,19.2816194 Z M11.3516484,18.522753 C10.5762637,18.522753 9.9432967,17.8903644 9.9432967,17.1047773 C9.9432967,16.3174089 10.5762637,15.6778947 11.3516484,15.6778947 C12.127033,15.6778947 12.76,16.3174089 12.76,17.1047773 C12.76,17.8903644 12.127033,18.522753 11.3516484,18.522753 Z M12.76,12.8455061 C12.76,13.6382186 12.127033,14.2723887 11.3516484,14.2723887 C10.5762637,14.2723887 9.9432967,13.6382186 9.9432967,12.8455061 L9.9432967,7.14688259 C9.9432967,6.35951417 10.5762637,5.72 11.3516484,5.72 C12.127033,5.72 12.76,6.35951417 12.76,7.14688259 L12.76,12.8455061 Z" id="Fill-1"></path>
        </g>
        <path d="M108,34.4246212 L115.424621,27 L117.545942,29.1213203 L110.12132,36.5459415 L117.545942,43.9705627 L115.424621,46.0918831 L108,38.6672619 L100.575379,46.0918831 L98.4540585,43.9705627 L105.87868,36.5459415 L98.4540585,29.1213203 L100.575379,27 L108,34.4246212 Z" id="Combined-Shape" fill="#FFFFFF"></path>
        <g id="clip" transform="translate(129.000000, 25.000000)">
            <mask id="mask-2" fill="white">
                <use xlink:href="#path-1"></use>
            </mask>
            <g id="Clip-2"></g>
            <path d="M22.1770249,1.89241281 C19.75721,-0.527402135 15.8327402,-0.527402135 13.4125836,1.89241281 L1.36185053,13.9431459 C-0.454035587,15.7591174 -0.454035587,18.7013808 1.36185053,20.5170107 C2.85856228,22.013637 5.11584342,22.255516 6.88048399,21.2839858 C7.06496797,21.2746762 7.246121,21.2049822 7.38721708,21.0655089 L19.4379502,9.0147758 C20.6480285,7.80469751 20.6480285,5.84327402 19.4379502,4.63353737 C18.2278719,3.42345907 16.2664484,3.42345907 15.0563701,4.63353737 L5.19664057,14.4933523 C4.89437722,14.7956157 4.89437722,15.2867189 5.19664057,15.5886406 C5.49856228,15.8909039 5.98966548,15.8909039 6.29192883,15.5886406 L16.1516584,5.72882562 C16.7575516,5.12301779 17.7384769,5.12301779 18.3426619,5.72882562 C18.9484698,6.33437722 18.9484698,7.31530249 18.3426619,7.91948754 L6.83871886,19.4233452 C5.62864057,20.6330819 3.66730249,20.6330819 2.4572242,19.4233452 C1.24714591,18.2132669 1.24714591,16.2518434 2.4572242,15.0417651 L14.5078719,2.98812811 C16.3238434,1.17215658 19.2657651,1.17215658 21.0817367,2.98812811 C22.8977082,4.8036726 22.8977082,7.74602135 21.0817367,9.56190747 L10.1262918,20.5170107 C9.82437011,20.819274 9.82437011,21.3103772 10.1262918,21.6122989 C10.4286406,21.9145623 10.9197438,21.9145623 11.2220071,21.6122989 L22.1770249,10.6571957 C24.5971815,8.23712456 24.5971815,4.3125694 22.1770249,1.89241281 Z" id="Fill-1" fill="#000000" mask="url(#mask-2)"></path>
        </g>
    </g>
</svg>