<?xml version="1.0" encoding="UTF-8"?>
<svg width="205px" height="25px" viewBox="0 0 205 25" version="1.1" xmlns="http://www.w3.org/2000/svg" xmlns:xlink="http://www.w3.org/1999/xlink">
    <!-- Generator: Sketch 49 (51002) - http://www.bohemiancoding.com/sketch -->
    <title>Group 10</title>
    <desc>Created with Sketch.</desc>
    <defs></defs>
    <g id="Page-1" stroke="none" stroke-width="1" fill="none" fill-rule="evenodd">
        <g id="Login" transform="translate(-23.000000, -23.000000)">
            <g id="Group-10" transform="translate(23.000000, 23.000000)">
                <path d="M8.97518904,20.4756757 C7.67856742,20.4756757 6.62045931,19.997973 5.93802688,19.2128378 C5.01640526,18.1885135 4.74343228,17.0290541 4.74343228,12.3533784 C4.74343228,7.67837838 5.01640526,6.51824324 5.93802688,5.49459459 C6.62045931,4.70945946 7.67924309,4.23175676 8.97518904,4.23175676 C11.3643782,4.23175676 12.5927566,5.73310811 13.071135,7.67837838 L17.8819458,7.67837838 C17.0292431,2.59324324 13.4799188,0 8.94072958,0 C6.27924309,0 4.09478363,0.955405405 2.38870255,2.66216216 C-0.0680542038,5.11891892 0.000189039455,8.15608108 0.000189039455,12.3533784 C0.000189039455,16.5513514 -0.0680542038,19.5885135 2.38870255,22.0445946 C4.09478363,23.752027 6.27924309,24.7081081 8.94140526,24.7081081 C13.4454593,24.7081081 17.0292431,22.1135135 17.8826215,17.0290541 L13.071135,17.0290541 C12.5927566,18.9736486 11.3650539,20.4756757 8.97518904,20.4756757" id="Fill-16" fill="#FFFFFE"></path>
                <path d="M28.5081081,19.4918919 C28,20.0006757 27.322973,20.2736486 26.4439189,20.277027 L26.4263514,20.277027 C25.5391892,20.277027 24.8905405,20.0033784 24.3790541,19.4918919 C23.4574324,18.5709459 23.3554054,17.0013514 23.3554054,15.1594595 C23.3554054,13.3155405 23.4574324,11.7797297 24.3790541,10.8587838 C24.8905405,10.3466216 25.5391892,10.0736486 26.4263514,10.0736486 L26.4439189,10.0736486 C27.3222973,10.077027 28,10.35 28.5081081,10.8581081 C29.4297297,11.7797297 29.5317568,13.3155405 29.5317568,15.1594595 C29.5317568,17.0013514 29.4304054,18.5709459 28.5081081,19.4918919 Z M26.4439189,6.08108108 L26.4263514,6.08108108 C23.7986486,6.08108108 22.0243243,7.10472973 20.9324324,8.26486486 C19.3283784,9.93716216 18.9189189,11.9506757 18.9189189,15.1594595 C18.9189189,18.4006757 19.3283784,20.4141892 20.9324324,22.0864865 C22.0243243,23.2466216 23.7986486,24.2709459 26.4263514,24.2709459 L26.4439189,24.2709459 C29.0621622,24.2662162 30.8655405,23.2439189 31.9547297,22.0864865 C33.5587838,20.4141892 33.9682432,18.4006757 33.9682432,15.1594595 C33.9682432,11.9513514 33.5587838,9.93716216 31.9547297,8.26486486 C30.8655405,7.10743243 29.0621622,6.08581081 26.4439189,6.08108108 Z" id="Fill-17" fill="#FFFFFE"></path>
                <path d="M45.2567568,6.08108108 C43.6189189,6.08108108 41.9810811,6.69527027 40.8209459,7.92364865 L40.8209459,6.28581081 L36.4864865,6.28581081 L36.4864865,24.0655405 L40.922973,24.0655405 L40.922973,13.3155405 C40.922973,10.8925676 42.4925676,10.0736486 43.8918919,10.0736486 C45.2912162,10.0736486 46.8263514,10.8925676 46.8263514,13.3155405 L46.8263514,24.0655405 L51.2628378,24.0655405 L51.2628378,12.7013514 C51.2628378,10.7560811 50.8885135,9.08378378 49.4554054,7.65067568 C48.4648649,6.66148649 47.0324324,6.08108108 45.2567568,6.08108108" id="Fill-18" fill="#FFFFFE"></path>
                <polyline id="Fill-19" fill="#FFFFFE" points="63.9033784 6.75675676 60.3202703 17.7452703 56.7027027 6.75675676 52.027027 6.75675676 58.5804054 24.5364865 62.0601351 24.5364865 68.5783784 6.75675676 63.9033784 6.75675676"></polyline>
                <path d="M75.9905405,13.5202703 L72.6114865,13.5202703 C72.6452703,12.7358108 72.7472973,12.2581081 73.0209459,11.6094595 C73.4986486,10.5513514 74.4885135,9.76689189 75.9898649,9.76689189 L75.9905405,9.76689189 C77.4912162,9.76689189 78.4810811,10.5513514 78.9594595,11.6094595 C79.2317568,12.2581081 79.3337838,12.7358108 79.3689189,13.5202703 L75.9905405,13.5202703 Z M75.9905405,6.08108108 L75.9898649,6.08108108 C71.3824324,6.08108108 68.2432432,9.35675676 68.2432432,15.1594595 C68.2432432,22.0858108 71.9695946,24.1175676 75.9905405,24.2621622 C76.1493243,24.2675676 76.3081081,24.2709459 76.4675676,24.2709459 C79.675,24.2709459 81.4155405,23.2810811 83.2243243,21.4709459 L80.5283784,18.8439189 C79.402027,19.9702703 78.4466216,20.5162162 76.5013514,20.5162162 C76.3256757,20.5162162 76.1554054,20.5081081 75.9905405,20.4912162 C73.8202703,20.277027 72.6121622,18.6824324 72.6121622,16.5581081 L83.7364865,16.5581081 L83.7364865,14.5783784 C83.7364865,9.69864865 80.9378378,6.08108108 75.9905405,6.08108108 Z" id="Fill-20" fill="#FFFFFE"></path>
                <path d="M95.2905405,6.08108108 C93.3797297,6.08108108 91.672973,6.96824324 90.8209459,7.99189189 L90.8209459,6.28581081 L86.4864865,6.28581081 L86.4864865,24.0655405 L90.922973,24.0655405 L90.922973,13.35 C90.922973,11.097973 92.425,10.0736486 93.7898649,10.0736486 C94.8810811,10.0736486 95.4614865,10.4493243 96.1439189,11.1317568 L99.4885135,7.75337838 C98.2594595,6.52432432 97.0310811,6.08108108 95.2905405,6.08108108" id="Fill-21" fill="#FFFFFE"></path>
                <path d="M107.801351,13.2466216 L105.002703,12.9743243 C103.433108,12.8378378 103.160135,12.0871622 103.160135,11.4385135 C103.160135,10.5513514 103.910811,9.73243243 105.685135,9.73243243 C107.220946,9.73243243 108.790541,10.0054054 109.814865,10.927027 L112.544595,8.16283784 C110.838514,6.55878378 108.518243,6.08108108 105.753378,6.08108108 C102.136486,6.08108108 98.8945946,8.06013514 98.8939189,11.7459459 C98.8939189,15.0222973 100.873649,16.4209459 104.081757,16.7283784 L106.87973,17.0013514 C108.279054,17.1378378 108.756757,17.7513514 108.756757,18.6398649 C108.756757,19.9702703 107.152703,20.4817568 105.617568,20.4817568 C104.252027,20.4817568 102.341216,20.277027 100.873649,18.8101351 L97.972973,21.7108108 C100.225,23.9635135 102.750676,24.2709459 105.549324,24.2709459 C109.746622,24.2709459 113.090541,22.3932432 113.090541,18.4689189 C113.090541,15.4655405 111.316216,13.5891892 107.801351,13.2466216" id="Fill-22" fill="#FFFFFE"></path>
                <path d="M118.966216,11.6094595 C119.443919,10.5513514 120.433784,9.76689189 121.935135,9.76689189 C123.436486,9.76689189 124.426351,10.5513514 124.903378,11.6094595 C125.177027,12.2581081 125.27973,12.7358108 125.313514,13.5202703 L118.556757,13.5202703 C118.591216,12.7358108 118.693243,12.2581081 118.966216,11.6094595 Z M129.681757,16.5581081 L129.681757,14.5783784 C129.681757,9.69864865 126.883784,6.08108108 121.935135,6.08108108 C117.328378,6.08108108 114.189189,9.35675676 114.189189,15.1594595 C114.189189,22.0858108 117.915541,24.1175676 121.935135,24.2621622 C122.093919,24.2675676 122.253378,24.2709459 122.412838,24.2709459 C125.620946,24.2709459 127.361486,23.2810811 129.17027,21.4709459 L126.474324,18.8439189 C125.347973,19.9702703 124.392568,20.5162162 122.447297,20.5162162 C122.270946,20.5162162 122.100676,20.5074324 121.935135,20.4912162 C119.765541,20.2763514 118.556757,18.6817568 118.556757,16.5581081 L129.681757,16.5581081 Z" id="Fill-23" fill="#FFFFFE"></path>
                <path d="M142.800676,20.0662162 L137.852703,20.0662162 L137.852703,14.0939189 L142.800676,14.0939189 C144.950676,14.0939189 145.973649,15.425 145.973649,17.0628378 C145.973649,18.7013514 144.950676,20.0662162 142.800676,20.0662162 Z M137.852703,4.23175676 L142.493919,4.23175676 C144.506757,4.23175676 145.633108,5.35810811 145.633108,7.03040541 C145.633108,8.70202703 144.506757,9.82837838 142.493919,9.82837838 L137.852703,9.82837838 L137.852703,4.23175676 Z M147.373649,11.8418919 C148.602027,11.2614865 150.377027,9.52162162 150.377027,6.82567568 C150.377027,2.66216216 147.612162,0 142.869595,0 L133.108108,0 L133.108108,24.297973 L143.278378,24.297973 C147.612162,24.297973 150.718243,21.8398649 150.718243,17.302027 C150.718243,14.0601351 148.841216,12.5243243 147.373649,11.8418919 Z" id="Fill-24" fill="#EA862C"></path>
                <path d="M162.973649,17.5135135 C162.973649,18.6054054 162.804054,19.3216216 162.325676,19.7655405 C161.639189,20.4222973 160.953378,20.5824324 159.970946,20.6128378 C159.82973,20.6175676 159.681757,20.6189189 159.527703,20.6189189 C157.787838,20.6189189 156.968243,19.7993243 156.968243,18.5709459 C156.968243,17.3081081 157.855405,16.5581081 159.459459,16.5581081 L162.974324,16.5581081 L162.973649,17.5135135 Z M159.970946,6.08175676 L159.834459,6.08108108 C156.865541,6.08108108 155.159459,6.62702703 153.419595,8.53783784 L156.251351,11.302027 C157.172297,10.2445946 157.958784,9.83513514 159.664189,9.83513514 C159.768919,9.83513514 159.871622,9.83716216 159.970946,9.83986486 C162.101351,9.91351351 162.974324,10.7743243 162.974324,12.6331081 L162.974324,13.5202703 L158.777027,13.5202703 C154.647973,13.5202703 152.702703,15.8405405 152.702703,18.6736486 C152.702703,20.2432432 153.214189,21.6763514 154.17027,22.6662162 C155.227703,23.7243243 156.69527,24.2364865 158.708784,24.2364865 C159.172973,24.2364865 159.590541,24.2094595 159.970946,24.1554054 C161.27027,23.9689189 162.154054,23.4533784 163.077027,22.5297297 L163.077027,24.0655405 L167.410811,24.0655405 L167.410811,12.3601351 C167.410811,8.23513514 164.864865,6.12094595 159.970946,6.08175676 Z" id="Fill-25" fill="#EA862C"></path>
                <path d="M179.040541,6.08108108 C177.401351,6.08108108 175.763514,6.69527027 174.604054,7.92364865 L174.604054,6.28581081 L170.27027,6.28581081 L170.27027,24.0655405 L174.706757,24.0655405 L174.706757,13.3155405 C174.706757,10.8925676 176.275676,10.0736486 177.675676,10.0736486 C179.075,10.0736486 180.610135,10.8925676 180.610135,13.3155405 L180.610135,24.0655405 L185.046622,24.0655405 L185.046622,12.7013514 C185.046622,10.7560811 184.671622,9.08378378 183.237838,7.65067568 C182.247973,6.66148649 180.814865,6.08108108 179.040541,6.08108108" id="Fill-26" fill="#EA862C"></path>
                <polyline id="Fill-27" fill="#EA862C" points="197.862838 13.6844595 204.210811 6.51824324 198.852703 6.51824324 192.949324 13.7871622 192.949324 0 188.513514 0 188.513514 24.297973 192.949324 24.297973 192.949324 19.0081081 194.826351 16.8925676 199.194595 24.297973 204.688514 24.297973 197.862838 13.6844595"></polyline>
            </g>
        </g>
    </g>
</svg>