<?xml version="1.0" encoding="UTF-8" standalone="no"?>
<svg width="20px" height="20px" viewBox="0 0 20 20" version="1.1" xmlns="http://www.w3.org/2000/svg" xmlns:xlink="http://www.w3.org/1999/xlink">
    <!-- Generator: Sketch 45.2 (43514) - http://www.bohemiancoding.com/sketch -->
    <title>Artboard 4</title>
    <desc>Created with Sketch.</desc>
    <defs>
        <polygon id="path-1" points="9.50444444 0.296296296 0.0444444444 0.296296296 0.0444444444 19.2607407 18.9644444 19.2607407 18.9644444 0.296296296"></polygon>
    </defs>
    <g id="Page-1" stroke="none" stroke-width="1" fill="none" fill-rule="evenodd">
        <g id="Artboard-4">
            <g id="small-calendar">
                <g id="Group-3">
                    <mask id="mask-2" fill="white">
                        <use xlink:href="#path-1"></use>
                    </mask>
                    <g id="Clip-2"></g>
                    <path d="M17.3844444,2.07259259 L14.8148148,2.07259259 L14.8148148,0.88962963 C14.8148148,0.562222222 14.5488889,0.296296296 14.2214815,0.296296296 C13.8948148,0.296296296 13.6281481,0.562222222 13.6281481,0.88962963 L13.6281481,2.07259259 L10.0755556,2.07259259 L10.0755556,0.88962963 C10.0755556,0.562222222 9.80888889,0.296296296 9.48222222,0.296296296 C9.15481481,0.296296296 8.88888889,0.562222222 8.88888889,0.88962963 L8.88888889,2.07259259 L5.33259259,2.07259259 L5.33259259,0.88962963 C5.33259259,0.562222222 5.06666667,0.296296296 4.73925926,0.296296296 C4.41259259,0.296296296 4.14962963,0.562222222 4.14962963,0.88962963 L4.14962963,2.07259259 L1.58,2.07259259 C0.708888889,2.07259259 0,2.78148148 0,3.65259259 L0,17.6777778 C0,18.5518519 0.708888889,19.2607407 1.58,19.2607407 L17.3844444,19.2607407 C18.2555556,19.2607407 18.9644444,18.5518519 18.9644444,17.6777778 L18.9644444,3.65259259 C18.9644444,2.78148148 18.2555556,2.07259259 17.3844444,2.07259259 Z M17.7777778,17.6777778 C17.7777778,17.8977778 17.6014815,18.0740741 17.3844444,18.0740741 L1.58,18.0740741 C1.36296296,18.0740741 1.18666667,17.8977778 1.18666667,17.6777778 L1.18666667,3.65259259 C1.18666667,3.43555556 1.36296296,3.25925926 1.58,3.25925926 L4.14962963,3.25925926 L4.14962963,4.44592593 C4.14962963,4.77259259 4.41259259,5.03555556 4.73925926,5.03555556 C5.06666667,5.03555556 5.33259259,4.77259259 5.33259259,4.44592593 L5.33259259,3.25925926 L8.88888889,3.25925926 L8.88888889,4.44592593 C8.88888889,4.77259259 9.15481481,5.03555556 9.48222222,5.03555556 C9.80888889,5.03555556 10.0755556,4.77259259 10.0755556,4.44592593 L10.0755556,3.25925926 L13.6281481,3.25925926 L13.6281481,4.44592593 C13.6281481,4.77259259 13.8948148,5.03555556 14.2214815,5.03555556 C14.5488889,5.03555556 14.8148148,4.77259259 14.8148148,4.44592593 L14.8148148,3.25925926 L17.3844444,3.25925926 C17.6014815,3.25925926 17.7777778,3.43555556 17.7777778,3.65259259 L17.7777778,17.6777778 Z" id="Fill-1" fill="#333332" mask="url(#mask-2)"></path>
                </g>
                <polygon id="Fill-4" fill="#333332" points="4.14962963 9.18518519 6.51925926 9.18518519 6.51925926 7.40888889 4.14962963 7.40888889"></polygon>
                <polygon id="Fill-5" fill="#333332" points="4.14962963 12.1481481 6.51925926 12.1481481 6.51925926 10.3718519 4.14962963 10.3718519"></polygon>
                <polygon id="Fill-6" fill="#333332" points="4.14962963 15.1111111 6.51925926 15.1111111 6.51925926 13.3348148 4.14962963 13.3348148"></polygon>
                <polygon id="Fill-7" fill="#333332" points="8.29555556 15.1111111 10.6651852 15.1111111 10.6651852 13.3348148 8.29555556 13.3348148"></polygon>
                <polygon id="Fill-8" fill="#333332" points="8.29555556 12.1481481 10.6651852 12.1481481 10.6651852 10.3718519 8.29555556 10.3718519"></polygon>
                <polygon id="Fill-9" fill="#333332" points="8.29555556 9.18518519 10.6651852 9.18518519 10.6651852 7.40888889 8.29555556 7.40888889"></polygon>
                <polygon id="Fill-10" fill="#333332" points="12.4451852 15.1111111 14.8148148 15.1111111 14.8148148 13.3348148 12.4451852 13.3348148"></polygon>
                <polygon id="Fill-11" fill="#333332" points="12.4451852 12.1481481 14.8148148 12.1481481 14.8148148 10.3718519 12.4451852 10.3718519"></polygon>
                <polygon id="Fill-12" fill="#333332" points="12.4451852 9.18518519 14.8148148 9.18518519 14.8148148 7.40888889 12.4451852 7.40888889"></polygon>
            </g>
        </g>
    </g>
</svg>